<?xml version="1.0" encoding="utf-8"?>
<!-- Generator: Adobe Illustrator 19.0.0, SVG Export Plug-In . SVG Version: 6.00 Build 0)  -->
<svg version="1.1" xmlns="http://www.w3.org/2000/svg" xmlns:xlink="http://www.w3.org/1999/xlink" x="0px" y="0px"
	 viewBox="0 0 1000 400" style="enable-background:new 0 0 1000 400;" xml:space="preserve">
<style type="text/css">
	.st0{fill:#FFFFFF;}
</style>
<g id="s">
	<g>
		<path class="st0" d="M170.9,167c0,0-34.7-4.5-51-4.5c-16.2,0-19.6,3.6-19.6,11.2c0,6.4,5.3,7.8,31.1,12.6
			c32.5,5.9,44,15.4,44,43.7c0,32.8-21.3,45.4-56.3,45.4c-20.7,0-53.8-6.7-53.8-6.7l1.1-31.4c0,0,34.7,4.5,49,4.5
			c17.9,0,22.7-3.6,22.7-10.9c0-6.2-3.1-9-28.8-13.2c-30.2-5-46.2-12.3-46.2-43.1c0-32.5,24.6-45.6,54-45.6c20.2,0,54.3,7,54.3,7
			L170.9,167z"/>
	</g>
</g>
<g id="p">
	<g>
		<path class="st0" d="M163.4,132h37.2v7.6c0,0,18.2-10.9,31.9-10.9c37,0,55.2,20.2,55.2,72.2c0,59.6-20.7,74.5-63.6,74.5
			c-10.4,0-23.2-2.2-23.2-2.2v57.7h-37.5V132z M200.9,167.8v73.4c0,0,12.6,1.7,20.4,1.7c22.4,0,28.3-12.3,28.3-42
			c0-28.3-9.5-38.6-24.4-38.6C213.8,162.2,200.9,167.8,200.9,167.8z"/>
	</g>
</g>
<g id="e">
	<g>
		<path class="st0" d="M386.2,239.8l0.6,27.7c0,0-32.2,7.8-58.2,7.8c-42.3,0-60.2-21-60.2-71.4c0-49.8,21-75.3,61.9-75.3
			c41.2,0,61,21,61,63.3l-2.8,26h-82.3c0.3,16.8,8.1,24.4,28.3,24.4C357.4,242.3,386.2,239.8,386.2,239.8z M354.3,189.4
			c0-22.7-6.4-30-24.1-30c-17.9,0-24.1,8.7-24.4,30H354.3z"/>
	</g>
</g>
<g id="c">
	<g>
		<path class="st0" d="M470.5,134.8l-1.1,29.7c0,0-22.1-2.2-32.8-2.2c-26.9,0-31.9,10.4-31.9,38.4c0,31.4,5.3,41.2,32.2,41.2
			c10.6,0,32.5-2.2,32.5-2.2l1.1,30c0,0-30,5.9-45.6,5.9c-41.7,0-58.2-22.1-58.2-74.8c0-49.6,17.4-72,59.1-72
			C442,128.6,470.5,134.8,470.5,134.8z"/>
	</g>
</g>
<g id="r">
	<g>
		<path class="st0" d="M477.4,132h37.2v14.8c0,0,23.5-14,44.8-18.2v37.8c-24.6,4.8-44.5,11.8-44.5,11.8V272h-37.5V132z"/>
	</g>
</g>
<g id="o">
	<g>
		<path class="st0" d="M669.9,201.7c0,43.1-15.7,73.6-64.4,73.6s-64.4-30.5-64.4-73.6c0-43.1,15.7-73.1,64.4-73.1
			S669.9,158.6,669.9,201.7z M631.8,201.7c0-27.2-5.6-41.2-26.3-41.2s-26.3,14-26.3,41.2c0,27.2,5.6,41.7,26.3,41.7
			S631.8,228.9,631.8,201.7z"/>
	</g>
</g>
<g id="l_1_">
	<g>
		<path class="st0" d="M608.5,90.8l30.7-21.5l112.4,160.6l-30.7,21.5L608.5,90.8z"/>
	</g>
</g>
<g id="l">
	<g>
		<path class="st0" d="M701.5,135.8l30.7-21.5l112.4,160.6l-30.7,21.5L701.5,135.8z"/>
	</g>
</g>
<g id="a">
	<g>
		<path class="st0" d="M926.6,233.9c0.6,8.4,1.7,11.8,9.2,13.2l-1.1,28.3c-18.8,0-28.3-2-40-9.8c0,0-20.2,9.8-41.2,9.8
			c-29.4,0-43.4-16.2-43.4-45.9c0-31.6,18.2-40.6,49-42.8l30-2.2v-8.7c0-12-5.3-15.1-16.5-15.1c-18.5,0-52.6,2.2-52.6,2.2l-1.1-26
			c0,0,30-8.1,56.8-8.1c36.4,0,51,14.3,51,47V233.9z M863.6,212.6c-9.8,0.8-15.7,5.6-15.7,15.7c0,9.8,3.6,16.5,13.7,16.5
			c12,0,27.4-4.5,27.4-4.5v-30L863.6,212.6z"/>
	</g>
</g>
</svg>
